<?xml version="1.0" encoding="utf-8"?>
<!-- Generator: Adobe Illustrator 19.1.0, SVG Export Plug-In . SVG Version: 6.00 Build 0)  -->
<svg version="1.1" id="Capa_1" xmlns="http://www.w3.org/2000/svg" xmlns:xlink="http://www.w3.org/1999/xlink" x="0px" y="0px"
	 viewBox="-297 389 16 16" style="enable-background:new -297 389 16 16;" xml:space="preserve">
<g>
	<path d="M-289,404.2c-4,0-7.2-3.3-7.2-7.3s3.3-7.2,7.2-7.2c4,0,7.3,3.3,7.3,7.2C-281.8,401-285,404.2-289,404.2z M-289,390.2
		c-3.7,0-6.7,3-6.7,6.7s3,6.7,6.7,6.7s6.7-3,6.7-6.7S-285.3,390.2-289,390.2z M-286.1,400.8c0.7-0.3,1.3-0.8,1.6-1.4
		c0.1-0.2,0-0.5-0.2-0.6s-0.5,0-0.6,0.2c-0.2,0.5-0.7,0.8-1.1,1c-0.5,0.2-1,0.2-1.5,0c-0.2-0.1-0.5,0-0.5,0.2
		c-0.1,0.2,0,0.5,0.2,0.5c0.4,0.1,0.7,0.2,1.1,0.2C-286.8,400.9-286.4,400.9-286.1,400.8z M-286,394.1c-1.1,0-2.1,0.4-3,0.4h-0.1
		h-0.1c-0.9,0-1.9-0.4-3-0.4s-2.2,0.3-2.2,0.3v0.5c0,0,0.3,0.2,0.3,0.4c0.1,0.2,0.4,1.4,0.6,1.6s0.3,0.7,1.7,0.7
		c1.9,0,2.2-2,2.3-2.2c0-0.2,0.2-0.2,0.3-0.2c0.1,0,0.3,0,0.3,0.2c0.1,0.3,0.4,2.2,2.3,2.2c1.3,0,1.5-0.5,1.7-0.7s0.5-1.5,0.6-1.6
		c0.1-0.2,0.3-0.4,0.3-0.4v-0.5C-283.8,394.4-284.9,394.1-286,394.1z"/>
</g>
</svg>
