<?xml version="1.0" encoding="utf-8"?>
<!-- Generator: Adobe Illustrator 19.1.0, SVG Export Plug-In . SVG Version: 6.00 Build 0)  -->
<svg version="1.1" id="Layer_1" xmlns="http://www.w3.org/2000/svg" xmlns:xlink="http://www.w3.org/1999/xlink" x="0px" y="0px"
	 viewBox="0 0 16 16" style="enable-background:new 0 0 16 16;" xml:space="preserve">
<style type="text/css">
	.st0{fill:#010101;}
</style>
<g>
	<path class="st0" d="M8,15.2C4,15.2,0.8,12,0.8,8S4,0.8,8,0.8c4,0,7.3,3.3,7.3,7.2C15.2,12,12,15.2,8,15.2z M8,1.2
		c-3.7,0-6.7,3-6.7,6.7s3,6.7,6.7,6.7s6.7-3,6.7-6.7S11.7,1.2,8,1.2z M10.9,11.8c0.7-0.3,1.3-0.8,1.6-1.4c0.1-0.2,0-0.5-0.2-0.6
		s-0.5,0-0.6,0.2c-0.2,0.5-0.7,0.8-1.1,1c-0.5,0.2-1,0.2-1.5,0c-0.2-0.1-0.5,0-0.5,0.2c-0.1,0.2,0,0.5,0.2,0.5
		C9.1,11.9,9.5,12,9.9,12C10.2,11.9,10.6,11.9,10.9,11.8z M11,5.1c-1.1,0-2.1,0.4-3,0.4H7.9H7.8c-0.9,0-1.9-0.4-3-0.4
		S2.5,5.4,2.5,5.4v0.5c0,0,0.3,0.2,0.3,0.4c0.1,0.2,0.4,1.4,0.6,1.6s0.3,0.7,1.7,0.7c1.9,0,2.2-2,2.3-2.2c0-0.2,0.2-0.2,0.3-0.2
		c0.1,0,0.3,0,0.3,0.2c0.1,0.3,0.4,2.2,2.3,2.2c1.3,0,1.5-0.5,1.7-0.7s0.5-1.5,0.6-1.6c0.1-0.2,0.3-0.4,0.3-0.4V5.4
		C13.2,5.4,12.1,5.1,11,5.1z"/>
</g>
</svg>
